<!DOCTYPE svg PUBLIC "-//W3C//DTD SVG 1.1//EN" "http://www.w3.org/Graphics/SVG/1.1/DTD/svg11.dtd">
<!-- Uploaded to: SVG Repo, www.svgrepo.com, Transformed by: SVG Repo Mixer Tools -->
<svg height="90px" width="90px" version="1.1" id="Capa_1" xmlns="http://www.w3.org/2000/svg" xmlns:xlink="http://www.w3.org/1999/xlink" viewBox="0 0 472.815 472.815" xml:space="preserve" fill="#ffffff" stroke="#ffffff" transform="matrix(1, 0, 0, 1, 0, 0)">
<g id="SVGRepo_bgCarrier" stroke-width="0"/>
<g id="SVGRepo_tracerCarrier" stroke-linecap="round" stroke-linejoin="round"/>
<g id="SVGRepo_iconCarrier"> <g> <g> <path style="fill:#010002;" d="M463.636,277.77c-1.447-3.829-1.886-4.731-3.707-6.454c-0.341-0.333-0.813-0.78-1.488-1.536 c-1.764-7.364-2.934-15.144-4.081-22.654c-3.113-20.533-6.373-41.765-19.964-63.476c-29.523-47.121-110.036-125.952-141.275-138.3 c-0.618-0.211-1.219-0.431-1.796-0.593c-2.057-8.511-7.803-15.07-17.135-19.484C250.228,14.006,220.388,0,198.733,0 c-5.251,0-9.925,0.837-13.9,2.471c-1.601,0.667-3.577,1-6.023,1c-1.504,0-2.975-0.13-4.357-0.285 c-1.569-0.187-3.064-0.333-4.422-0.333c-5.674,0-9.348,2.796-11.282,8.535c-0.488,1.447-1.772,3.601-3.357,6.259 c-4.576,7.657-10.852,18.127-8.714,30.393c0.667,3.877,6.568,18.452,14.469,27.011c-0.764,0.569-1.374,1.292-1.853,2.138 c-1.772,3.154-1.203,7.43,1.91,13.9c3.316,6.95,12.144,7.763,18.476,7.763c7.852,0,17.436-1.423,27.727-2.959 c10.323-1.544,21.012-3.154,29.726-3.154c10.079,0,13.916,2.138,15.29,3.804c6.21,9.25,10.461,28.938,15.452,52.031 s11.087,51.389,21.256,76.01c-16.964-13.745-34.27-20.435-52.698-20.435c-6.096,0-12.347,0.756-18.574,2.26 c-40.521,9.771-57.916,38.025-64.118,51.673c-15.412-12.364-34.4-18.883-55.047-18.883c-39.692,0-78.14,24.67-85.7,55.055 c-0.967,4.511-22.76,110.906,14.77,157.223c11.461,14.152,27.263,21.338,46.943,21.338c3.471,0,7.113-0.211,11.104-0.732 l1.211-0.39c75.669-38.302,76.319-56.16,77.051-75.076c0.26-7.43,0.52-14.453,6.787-23.394c6.438,0.78,13.794,1.187,21.817,1.187 c26.263,0,55.77-4.211,75.384-6.982c5.129-0.74,9.592-1.374,13.128-1.813c19.631-2.439,94.194-23.524,116.352-31.669 c10.421-3.82,19.761-6.714,27.995-9.291c20.492-6.357,34.051-10.583,39.31-21.167C468.049,297.026,467.659,288.857,463.636,277.77 z"/> </g> </g> </g>
</svg>