<!DOCTYPE svg PUBLIC "-//W3C//DTD SVG 1.1//EN" "http://www.w3.org/Graphics/SVG/1.1/DTD/svg11.dtd">
<!-- Uploaded to: SVG Repo, www.svgrepo.com, Transformed by: SVG Repo Mixer Tools -->
<svg fill="#ffffff" version="1.1" id="Layer_1" xmlns="http://www.w3.org/2000/svg" xmlns:xlink="http://www.w3.org/1999/xlink" viewBox="0 0 512 512" xml:space="preserve" width="128px" height="128px">
<g id="SVGRepo_bgCarrier" stroke-width="0"/>
<g id="SVGRepo_tracerCarrier" stroke-linecap="round" stroke-linejoin="round"/>
<g id="SVGRepo_iconCarrier"> <g> <g> <path d="M95.909,108.194c-13.161,0-23.869,10.707-23.869,23.869s10.708,23.869,23.869,23.869 c13.161,0,23.869-10.707,23.869-23.869C119.779,118.901,109.07,108.194,95.909,108.194z M95.91,140.21 c-4.493,0-8.148-3.656-8.148-8.148c-0.001-4.492,3.655-8.148,8.148-8.148c4.493,0,8.148,3.656,8.148,8.148 C104.058,136.556,100.404,140.21,95.91,140.21z"/> </g> </g> <g> <g> <path d="M48.027,132.071h15.721c0-17.818,14.335-32.169,32.152-32.169V84.18C69.698,84.18,48.027,105.868,48.027,132.071z"/> </g> </g> <g> <g> <path d="M152.085,132.071c0,31.443-24.741,56.168-56.184,56.168v15.721c39.828,0,71.906-32.061,71.906-71.889H152.085z"/> </g> </g> <g> <g> <path d="M416.09,212.252H190.823c0,0,0.997-79.62,0.997-80.189c0-52.885-43.025-95.91-95.91-95.91 C43.024,36.153,0,79.179,0,132.063v104.058c0,52.885,43.025,95.91,95.91,95.91H416.09c22.614,0,43.056,9.423,57.648,24.533 c-7.515,4.639-16.329,7.135-25.629,7.135H270.933v112.146h177.175c35.128,0,63.719-28.137,63.885-63.627H512V308.162 C512,255.277,468.975,212.252,416.09,212.252z M95.91,51.875c44.217,0,80.189,35.973,80.189,80.189s-35.972,80.189-80.189,80.189 s-80.189-35.973-80.189-80.189S51.693,51.875,95.91,51.875z M175.434,185.628l-0.332,26.625h-26.637 C159.116,205.248,168.299,196.186,175.434,185.628z M320.194,460.125h-8.385v-7.337h-15.721v7.337h-9.433v-80.703h9.433v9.433 h15.721v-9.433h8.385V460.125z M472.168,453.57v-17.55h-15.721v23.356c-2.71,0.483-5.494,0.75-8.339,0.75h-8.431V419.25h-15.721 v40.876h-15.721v-24.106h-15.721v24.106h-16.77v-63.934h-15.721v63.934h-24.106v-80.703h112.193 c12.901,0,25.138-3.662,35.447-10.462c8.012,12.45,12.689,27.239,12.72,43.106C496.218,429.564,486.524,445.164,472.168,453.57z M496.279,359.655c-4.969-7.555-10.982-14.362-17.822-20.23v-62.716h-15.721v51.735c-4.666-2.609-9.571-4.835-14.673-6.644v-29.37 H432.34v25.268c-5.285-0.906-10.712-1.388-16.251-1.388h-0.519v-39.601h-15.721v39.602h-16.77V292.43h-15.721v23.881h-15.721 v-64.757h-15.721v64.757h-14.673V292.43h-15.721v23.881h-18.866v-39.602h-15.721v39.602H256.26V292.43h-15.721v23.881h-17.818 v-64.757h-15.721v64.757h-14.673V292.43h-15.721v23.881h-15.721v-39.602h-15.721v39.602h-18.866V292.43h-15.721v23.881H95.91 c-0.003,0-0.006,0-0.009,0v-64.757H80.18v63.198c-5.46-1.09-10.72-2.733-15.721-4.875v-25.832H48.737v16.865 c-2.956-2.158-5.754-4.515-8.385-7.047v-42.309H24.63v21.231c-5.68-10.997-8.909-23.456-8.909-36.664v-51.505 c17.158,26.092,46.693,43.357,80.189,43.357H416.09c44.217,0,80.189,35.973,80.189,80.189V359.655z"/> </g> </g> <g> <g> <rect x="296.088" y="403.528" width="15.721" height="32.491"/> </g> </g> <g> <g> <path d="M24.013,132.072h15.721c0-31.444,24.724-56.183,56.167-56.183V60.167C56.073,60.167,24.013,92.244,24.013,132.072z"/> </g> </g> <g> <g> <path d="M128.071,132.071c0,17.818-14.353,32.155-32.17,32.155v15.721c26.202,0,47.892-21.674,47.892-47.876H128.071z"/> </g> </g> </g>
</svg>