<!DOCTYPE svg PUBLIC "-//W3C//DTD SVG 1.1//EN" "http://www.w3.org/Graphics/SVG/1.1/DTD/svg11.dtd">
<!-- Uploaded to: SVG Repo, www.svgrepo.com, Transformed by: SVG Repo Mixer Tools -->
<svg fill="#000000" height="90px" width="90px" version="1.1" id="Layer_1" xmlns="http://www.w3.org/2000/svg" xmlns:xlink="http://www.w3.org/1999/xlink" viewBox="0 0 512.001 512.001" xml:space="preserve" stroke="#000000">
<g id="SVGRepo_bgCarrier" stroke-width="0"/>
<g id="SVGRepo_tracerCarrier" stroke-linecap="round" stroke-linejoin="round"/>
<g id="SVGRepo_iconCarrier"> <g> <g> <path d="M500.193,190.047H259.829v-24.741c0-0.025-0.004-0.05-0.004-0.076c0-0.028,0.002-0.055,0.002-0.084 c0-33.334-67.343-48.516-129.913-48.516S0,131.813,0,165.147c0,0.035,0.004,0.07,0.004,0.105c0,0.018-0.002,0.037-0.002,0.054 v181.389c0,0.028,0,0.058,0,0.086c0,0.025,0,0.05,0,0.073c0,33.334,67.343,48.516,129.913,48.516h44.246h41.917h78.667h41.917 h78.667h41.917h42.949c6.52,0,11.807-5.286,11.807-11.807V201.855C512,195.334,506.714,190.047,500.193,190.047z M118.107,371.568 c-13.523-0.429-26.516-1.596-38.481-3.427v-47.768c0-6.521-5.286-11.807-11.807-11.807c-6.521,0-11.807,5.286-11.807,11.807 v42.913c-1.592-0.426-3.161-0.862-4.683-1.318c-21.896-6.561-27.457-13.616-27.709-15.082c0-0.022,0-0.043,0.001-0.063 c0.001-0.172,0-0.345-0.006-0.516V194.636c19.11,9.833,47.698,15.711,77.723,17.963c0.009,0,0.019,0.001,0.027,0.002 c1.044,0.078,2.088,0.152,3.135,0.221c0.148,0.011,0.296,0.02,0.445,0.03c0.908,0.059,1.816,0.115,2.726,0.168 c0.223,0.013,0.446,0.026,0.669,0.038c0.848,0.047,1.697,0.092,2.546,0.133c0.253,0.013,0.504,0.026,0.756,0.038 c0.85,0.04,1.701,0.077,2.552,0.111c0.233,0.009,0.466,0.02,0.699,0.03c1.059,0.041,2.119,0.079,3.179,0.111 c0.012,0,0.024,0.001,0.035,0.001V371.568z M129.913,190.045c-21.977,0-43.002-1.916-60.992-5.48 c-6.26-1.24-12.159-2.677-17.594-4.306c-22.056-6.612-27.534-13.724-27.706-15.117c0-0.004,0-0.006,0-0.009 c0.231-1.459,5.768-8.526,27.705-15.102c21.053-6.311,48.962-9.786,78.588-9.786s57.537,3.475,78.588,9.786 c21.91,6.567,27.461,13.626,27.705,15.098c0,0.001,0,0.001,0,0.001c-0.174,1.406-5.65,8.517-27.706,15.129 c-6.008,1.801-12.59,3.363-19.596,4.686C171.363,188.261,151.084,190.045,129.913,190.045z M204.268,371.755h-18.302v-88.074 h18.302V371.755z M324.852,371.755h-18.302v-88.074h18.302V371.755z M445.436,371.755h-18.302v-88.074h18.302V371.755z M488.385,371.755h-19.334v-99.882c0-6.521-5.287-11.807-11.807-11.807h-41.917c-6.52,0-11.807,5.286-11.807,11.807v99.882 h-15.792v-39.573c0-6.521-5.287-11.807-11.807-11.807c-6.52,0-11.807,5.286-11.807,11.807v39.573h-15.645v-99.882 c0-6.521-5.287-11.807-11.807-11.807h-41.917c-6.52,0-11.807,5.286-11.807,11.807v99.882h-15.645v-39.573 c0-6.521-5.287-11.807-11.807-11.807c-6.521,0-11.807,5.286-11.807,11.807v39.573h-15.793v-99.882 c0-6.521-5.286-11.807-11.807-11.807h-41.917c-6.521,0-11.807,5.286-11.807,11.807v99.882h-20.63V213.662H248.02 c0.004,0,0.007,0,0.012,0h240.353V371.755z"/> </g> </g> <g> <g> <path d="M263.827,288.411c-0.543-0.543-1.145-1.039-1.796-1.464c-0.638-0.425-1.321-0.791-2.031-1.086 c-0.719-0.295-1.464-0.52-2.208-0.673c-3.834-0.778-7.919,0.484-10.66,3.224c-2.196,2.196-3.46,5.242-3.46,8.348 c0,0.767,0.083,1.547,0.236,2.302c0.153,0.756,0.378,1.5,0.673,2.22c0.295,0.708,0.661,1.393,1.086,2.031 c0.425,0.649,0.921,1.252,1.464,1.795c2.196,2.196,5.242,3.46,8.348,3.46c0.767,0,1.547-0.083,2.313-0.236 c0.744-0.142,1.489-0.378,2.208-0.673c0.71-0.295,1.393-0.649,2.031-1.086c0.651-0.425,1.253-0.921,1.796-1.464 c0.543-0.543,1.039-1.145,1.476-1.795c0.425-0.638,0.791-1.322,1.086-2.031c0.295-0.72,0.52-1.464,0.673-2.22 s0.223-1.535,0.223-2.302C267.286,293.653,266.024,290.607,263.827,288.411z"/> </g> </g> <g> <g> <path d="M76.171,276.603c-0.543-0.543-1.157-1.039-1.795-1.464c-0.649-0.425-1.334-0.791-2.043-1.086 c-0.708-0.295-1.452-0.52-2.208-0.673c-1.523-0.307-3.094-0.307-4.617,0c-0.756,0.154-1.5,0.378-2.208,0.673 c-0.708,0.295-1.393,0.661-2.043,1.086c-0.638,0.425-1.252,0.921-1.795,1.464c-2.196,2.196-3.448,5.243-3.448,8.348 c0,0.767,0.071,1.547,0.224,2.302c0.153,0.756,0.378,1.5,0.673,2.22c0.295,0.708,0.661,1.393,1.086,2.031 c0.425,0.649,0.921,1.252,1.464,1.795c0.555,0.543,1.157,1.039,1.795,1.464c0.649,0.425,1.334,0.791,2.043,1.086 c0.708,0.295,1.452,0.531,2.208,0.673c0.768,0.154,1.535,0.236,2.314,0.236c0.768,0,1.535-0.083,2.302-0.236 c0.756-0.142,1.5-0.378,2.208-0.673c0.708-0.295,1.393-0.661,2.043-1.086c0.638-0.425,1.252-0.921,1.795-1.464 s1.039-1.145,1.464-1.795c0.425-0.638,0.791-1.322,1.086-2.031c0.295-0.72,0.52-1.464,0.673-2.22s0.224-1.535,0.224-2.302 C79.619,281.846,78.367,278.8,76.171,276.603z"/> </g> </g> <g> <g> <path d="M387.501,294.456c-0.152-0.756-0.378-1.5-0.673-2.208c-0.295-0.72-0.661-1.405-1.086-2.043 c-0.437-0.649-0.933-1.252-1.476-1.795s-1.145-1.039-1.796-1.464c-0.638-0.425-1.321-0.791-2.031-1.086 c-0.719-0.295-1.464-0.531-2.208-0.673c-1.523-0.307-3.094-0.307-4.617,0c-0.756,0.142-1.5,0.378-2.207,0.673 c-0.72,0.295-1.405,0.661-2.043,1.086c-0.649,0.425-1.252,0.921-1.795,1.464c-0.543,0.543-1.04,1.145-1.464,1.795 c-0.425,0.638-0.791,1.322-1.086,2.043c-0.295,0.708-0.52,1.452-0.673,2.208s-0.236,1.535-0.236,2.302 c0,0.768,0.083,1.547,0.236,2.302s0.378,1.5,0.673,2.22c0.295,0.708,0.661,1.393,1.086,2.031c0.424,0.649,0.921,1.252,1.464,1.795 c0.543,0.543,1.145,1.039,1.795,1.464c0.638,0.425,1.322,0.791,2.043,1.086c0.708,0.295,1.451,0.531,2.207,0.673 c0.757,0.154,1.536,0.236,2.302,0.236c0.767,0,1.548-0.083,2.314-0.236c0.744-0.142,1.489-0.378,2.208-0.673 c0.71-0.295,1.393-0.661,2.031-1.086c0.651-0.425,1.253-0.921,1.796-1.464s1.039-1.145,1.476-1.795 c0.425-0.638,0.791-1.322,1.086-2.031c0.295-0.72,0.52-1.464,0.673-2.22s0.223-1.535,0.223-2.302 C387.724,295.991,387.653,295.212,387.501,294.456z"/> </g> </g> </g>
</svg>